<svg width="15" height="14" viewBox="0 0 15 14" fill="none" xmlns="http://www.w3.org/2000/svg">
<path fill-rule="evenodd" clip-rule="evenodd" d="M7.125 13.5H7.875C10.7034 13.5 12.1177 13.5 12.9963 12.6213C13.875 11.7427 13.875 10.3285 13.875 7.5V2.99854C13.7661 3.00006 13.6132 3.00004 13.5 3.00001H1.5C1.38679 3.00004 1.2339 3.00006 1.125 2.99854V7.5C1.125 10.3285 1.125 11.7427 2.00368 12.6213C2.88236 13.5 4.29657 13.5 7.125 13.5ZM9.79462 6.37462C10.0015 6.14287 9.98137 5.7873 9.74962 5.58045C9.51787 5.37352 9.1623 5.39362 8.95545 5.62537L6.69645 8.15542L6.04462 7.42537C5.83769 7.19362 5.4821 7.17352 5.25037 7.38045C5.01864 7.5873 4.99851 7.94287 5.20541 8.17462L6.27682 9.37462C6.38355 9.49417 6.53618 9.5625 6.69645 9.5625C6.85665 9.5625 7.00927 9.49417 7.116 9.37462L9.79462 6.37462Z" fill="#3D3BFF"/>
<path d="M0 1.5C0 0.792892 4.47035e-08 0.439342 0.219667 0.219667C0.439342 4.47035e-08 0.792892 0 1.5 0H13.5C14.2071 0 14.5606 4.47035e-08 14.7803 0.219667C15 0.439342 15 0.792892 15 1.5C15 2.20711 15 2.56066 14.7803 2.78033C14.5606 3 14.2071 3.00001 13.5 3.00001H1.5C0.792893 3.00001 0.439342 3 0.219667 2.78033C4.47035e-08 2.56066 0 2.20711 0 1.5Z" fill="#3D3BFF"/>
</svg>
