<svg width="18" height="18" viewBox="0 0 18 18" fill="none" xmlns="http://www.w3.org/2000/svg">
<path fill-rule="evenodd" clip-rule="evenodd" d="M7.16909 2.7729C8.0664 1.51662 9.93353 1.51662 10.8309 2.7729L10.9738 2.9729C11.1316 3.194 11.3969 3.31239 11.6669 3.28239L12.3036 3.21164C13.7367 3.05241 14.9476 4.26329 14.7884 5.69635L14.7176 6.33311C14.6876 6.60315 14.806 6.86831 15.0271 7.02623L15.2271 7.16909C16.4834 8.0664 16.4834 9.93353 15.2271 10.8309L15.0271 10.9738C14.806 11.1316 14.6876 11.3969 14.7176 11.6669L14.7884 12.3036C14.9476 13.7367 13.7367 14.9476 12.3036 14.7884L11.6669 14.7176C11.3969 14.6876 11.1316 14.806 10.9738 15.0271L10.8309 15.2271C9.93353 16.4834 8.06648 16.4834 7.16909 15.2271L7.02623 15.0271C6.86831 14.806 6.60315 14.6876 6.33311 14.7176L5.69635 14.7884C4.26329 14.9476 3.05241 13.7367 3.21164 12.3036L3.28239 11.6669C3.31239 11.3969 3.194 11.1316 2.9729 10.9738L2.7729 10.8309C1.51662 9.93353 1.51662 8.06648 2.7729 7.16909L2.9729 7.02623C3.194 6.86831 3.31239 6.60315 3.28239 6.33311L3.21164 5.69635C3.05241 4.26329 4.26329 3.05241 5.69635 3.21164L6.33311 3.28239C6.60315 3.31239 6.86831 3.194 7.02623 2.9729L7.16909 2.7729ZM11.7803 6.96967C12.0732 7.26257 12.0732 7.73745 11.7803 8.03032L8.91615 10.8945C8.54827 11.2625 7.95173 11.2625 7.58385 10.8945L6.21967 9.53032C5.92678 9.23745 5.92678 8.76255 6.21967 8.46968C6.51257 8.1768 6.98744 8.1768 7.28033 8.46968L8.25 9.43935L10.7197 6.96967C11.0126 6.67678 11.4875 6.67678 11.7803 6.96967Z" fill="#2F8152"/>
</svg>
