<svg width="27" height="27" viewBox="0 0 27 27" fill="none" xmlns="http://www.w3.org/2000/svg">
<path fill-rule="evenodd" clip-rule="evenodd" d="M0 13.3333C0 7.04793 -1.19209e-07 3.90524 1.95263 1.95263C3.90524 -1.19209e-07 7.04793 0 13.3333 0C19.6187 0 22.7615 -1.19209e-07 24.714 1.95263C26.6667 3.90524 26.6667 7.04793 26.6667 13.3333C26.6667 19.6187 26.6667 22.7615 24.714 24.714C22.7615 26.6667 19.6187 26.6667 13.3333 26.6667C7.04793 26.6667 3.90524 26.6667 1.95263 24.714C-1.19209e-07 22.7615 0 19.6187 0 13.3333ZM13.3333 5.66667C13.8856 5.66667 14.3333 6.11439 14.3333 6.66667V13.5857L16.6263 11.2929C17.0168 10.9024 17.6499 10.9024 18.0404 11.2929C18.4309 11.6835 18.4309 12.3165 18.0404 12.7071L14.0404 16.7071C13.8529 16.8947 13.5985 17 13.3333 17C13.0681 17 12.8137 16.8947 12.6263 16.7071L8.62623 12.7071C8.23571 12.3165 8.23571 11.6835 8.62623 11.2929C9.01675 10.9024 9.64992 10.9024 10.0404 11.2929L12.3333 13.5857V6.66667C12.3333 6.11439 12.7811 5.66667 13.3333 5.66667ZM8 19C7.44772 19 7 19.4477 7 20C7 20.5523 7.44772 21 8 21H18.6667C19.2189 21 19.6667 20.5523 19.6667 20C19.6667 19.4477 19.2189 19 18.6667 19H8Z" fill="#3D3BFF"/>
</svg>
