<svg width="35" height="40" viewBox="0 0 35 40" fill="none" xmlns="http://www.w3.org/2000/svg">
<g clip-path="url(#clip0_80_160)">
<path d="M23.1055 35.8522C23.0863 35.7547 22.2934 34.2338 22.1813 34.0603C22.1129 33.9546 22.0883 33.6835 21.8777 33.8868C21.7574 34.0007 21.5332 35.8631 21.3691 36.2968C21.093 37.0342 20.475 37.1725 21 38.0752C21.0984 38.246 22.452 39.447 22.2879 39.5771C21.7902 39.5906 21.5633 39.1515 21.1094 38.9183C20.0266 38.3599 19.1789 38.5984 18.0496 38.9021C17.9594 37.8963 19.1242 38.0535 19.8242 37.815C19.9117 37.6903 18.7879 35.3155 18.5965 35.039C18.0387 34.2257 15.4273 31.4849 14.5715 31.1677C13.866 30.9075 12.8844 31.1217 12.1379 30.8695C11.2137 30.5551 11.1125 29.7987 9.63594 29.6903C8.29609 29.5927 8.39727 29.7824 7.85313 30.9048L7.72734 31.7181C6.94531 31.6178 6.39023 29.7174 6.48047 29.1427C6.52969 28.8309 7.04922 27.4022 7.24336 27.1745C7.68906 26.6513 9.52109 25.0898 10.1281 24.6127C11.2 23.7777 14.0137 22.5524 14.6891 21.6794C15.2141 20.999 16.9531 17.1982 17.2922 16.263C17.9539 14.4249 18.0633 12.2426 18.7496 10.3883C20.4887 8.30091 23.059 6.47645 24.7434 4.40257C25.8043 3.09861 26.5152 1.34463 27.5488 0L26.3867 4.06371C26.6273 4.1125 26.723 3.94171 26.8652 3.79532C27.5352 3.11216 27.918 2.08743 28.7082 1.48831L27.7539 5.01254C28.0137 5.2999 29.4068 3.74653 29.5982 3.592C29.7677 3.45374 29.8648 3.29109 29.8047 3.592C29.7281 3.98509 28.3117 6.52796 28.4375 6.6391C28.8777 6.85327 31.0734 5.30532 31.1691 5.41918C31.2102 5.92341 29.4738 7.6774 29.8047 7.99458L32.4023 7.4551C31.9566 8.31176 30.6223 8.68858 30.4883 9.62114H33.5645C33.6875 9.62114 34.0594 9.87326 34.3164 9.75669C34.568 9.9573 31.4727 10.7489 31.2703 10.8682C31.0953 10.9712 30.9887 11.0064 31.0352 11.245L34.4531 12.2616C33.5508 12.6845 32.4625 12.5923 31.5082 12.8689C31.3086 12.9258 31.2703 12.7957 31.3113 13.1427C32.1207 13.4734 32.9902 13.674 33.8051 13.9939C34.1004 14.1105 34.5762 14.2108 34.7293 14.5008L30.9668 15.0403L27.1496 25.3528L21.5086 27.4863L21.1969 27.9173C22.7035 28.8038 24.3906 29.7309 25.807 30.734C28.3992 32.572 32.6074 36.9339 34.6664 39.4361C34.8031 39.6015 34.9316 39.7777 35.0055 39.981C34.702 40.225 31.4563 37.712 30.8383 37.5412C30.5676 37.7065 30.7152 37.7662 30.7207 37.9153C30.7344 38.4141 30.7207 38.9617 30.9039 39.4361C30.5949 39.6774 29.4711 37.7201 29.0555 37.5412C28.8504 37.4544 28.8695 37.5981 28.8203 37.7092C28.7082 37.9668 28.5906 39.3141 28.3746 39.3006L26.7313 37.1345C26.4496 37.0749 26.5398 37.2457 26.4879 37.43C26.3621 37.88 26.332 38.368 26.25 38.8262C26.2172 39.0159 26.3785 39.2247 26.0504 39.165L24.6805 36.8634C24.1965 36.7469 23.7563 39.043 23.1109 39.0322C22.9797 38.105 23.2887 36.7089 23.1109 35.8468L23.1055 35.8522Z" fill="black"/>
<path d="M4.16992 11.2504C4.29297 11.2396 4.6457 11.1447 4.85078 11.1095C5.07227 11.0688 5.5 11 5.05859 10.8465L0.273438 9.01389C1.43008 9.00847 2.61953 9.43138 3.7625 9.48831C4.04688 9.50186 4.15625 9.56693 4.10156 9.21992L0 7.184C1.4082 7.65571 4.82344 7.68282 5.94727 8.40122C6.61172 8.82684 9.86289 11.8007 10.3934 12.4378C10.7707 12.8933 13.7457 18.326 13.8824 18.8356C13.9863 19.226 14.2324 21.5086 14.093 21.7228L10.0789 24.1545L9.57031 24.2602V20.6682C9.57031 19.3507 8.3918 18.1172 8.04453 16.8268C7.55781 16.5259 4.9957 17.6455 4.23828 17.4802L6.5707 15.39L6.69649 14.9075L3.41797 15.9892C4.23281 15.2057 5.34297 14.6716 6.15508 13.8909C6.30274 13.7499 6.475 13.6523 6.42578 13.4138L1.64336 13.5466L4.89453 12.6357C5.03399 12.6005 5.47695 12.6682 5.33203 12.3972C5.18711 12.1261 1.87578 11.6625 1.29063 11.5188C1.0582 11.4619 0.894141 11.6544 0.959766 11.245C1.99609 11.1718 3.15274 11.3426 4.17266 11.245L4.16992 11.2504Z" fill="black"/>
<path d="M16.7727 33.6591C16.9094 33.7757 17.8746 34.8329 17.9703 34.9766C18.066 35.1203 18.1836 35.264 18.1781 35.4456C18.1754 35.5269 17.3988 36.7686 17.325 36.8282C16.6031 37.4165 15.4191 36.5625 16.4035 38.4927C16.2941 38.6039 14.8996 37.7418 14.5496 37.6876C14.1996 37.6333 12.857 37.5385 12.518 37.552C12.1789 37.5656 11.6895 37.8502 11.3477 37.9505C11.1289 37.7228 12.3621 36.8905 12.5973 36.8201C13.3711 36.5869 14.3117 36.8173 15.1074 36.7306C16.3789 36.5923 16.6551 34.4968 16.2668 33.4775C16.4582 33.4531 16.6305 33.5398 16.7699 33.6564L16.7727 33.6591Z" fill="black"/>
</g>
<defs>
<clipPath id="clip0_80_160">
<rect width="35" height="40" fill="white"/>
</clipPath>
</defs>
</svg>
