<svg width="20" height="20" viewBox="0 0 20 20" fill="none" xmlns="http://www.w3.org/2000/svg">
<path d="M10.0153 2C5.53032 2 2.03132 5.344 2.03132 9.307C2.03132 10.726 2.47232 12.051 3.24132 13.167C3.35658 13.334 3.41831 13.5321 3.41832 13.735C3.41832 15.209 2.84932 16.695 2.33832 17.914C3.94132 17.694 4.98932 17.117 5.63332 16.301C5.76744 16.1312 5.953 16.0095 6.16216 15.9542C6.37132 15.8988 6.59278 15.9128 6.79332 15.994C7.77632 16.391 8.86532 16.614 10.0153 16.614C14.5003 16.614 17.9993 13.27 17.9993 9.307C17.9993 5.344 14.4993 2 10.0153 2ZM0.0313226 9.307C0.0313226 4.094 4.57632 0 10.0153 0C15.4543 0 19.9993 4.094 19.9993 9.307C19.9993 14.519 15.4543 18.613 10.0153 18.613C8.85732 18.613 7.74332 18.43 6.70632 18.09C5.44032 19.315 3.62232 19.906 1.42632 19.999C1.18618 20.0079 0.94797 19.9529 0.735952 19.8398C0.523934 19.7267 0.345675 19.5594 0.219323 19.355C0.097668 19.1622 0.0241666 18.9431 0.00502166 18.7159C-0.0141233 18.4888 0.02165 18.2604 0.109322 18.05C0.183322 17.87 0.258322 17.692 0.332322 17.516C0.850322 16.286 1.33532 15.134 1.40932 14.021C0.509533 12.6134 0.031375 10.9776 0.0313226 9.307Z" fill="black"/>
</svg>
