<svg width="18" height="20" viewBox="0 0 18 20" fill="none" xmlns="http://www.w3.org/2000/svg">
<path d="M4 14H13V15H14C14 16.3261 13.4732 17.5979 12.5355 18.5355C11.5979 19.4732 10.3261 20 9 20C7.67392 20 6.40215 19.4732 5.46447 18.5355C4.52678 17.5979 4 16.3261 4 15V14ZM11.83 16H6.17C6.3766 16.5855 6.75974 17.0926 7.2666 17.4512C7.77346 17.8099 8.37909 18.0025 9 18.0025C9.62091 18.0025 10.2265 17.8099 10.7334 17.4512C11.2403 17.0926 11.6234 16.5855 11.83 16Z" fill="black"/>
<path d="M5.22 4.14C4.445 5.48 4.128 7.304 4.128 9.09C4.128 9.708 3.876 10.203 3.606 10.577C3.377 10.895 3.085 11.19 2.853 11.423L2.776 11.502C2.207 12.078 2 12.378 2 12.719C2 13.023 2.026 13.152 2.107 13.329C2.257 13.654 2.632 13.999 3.67 13.999H14.33C15.328 13.999 15.715 13.666 15.877 13.341C15.971 13.153 16 13.011 16 12.719C16 12.378 15.793 12.079 15.224 11.502L15.147 11.423C14.915 11.19 14.623 10.895 14.393 10.577C14.124 10.203 13.873 9.708 13.873 9.09C13.873 7.304 13.556 5.48 12.783 4.14C12.044 2.863 10.89 2 9.002 2C7.114 2 5.96 2.863 5.22 4.14ZM3.49 3.137C4.547 1.308 6.33 0 9.002 0C11.676 0 13.456 1.308 14.513 3.14C15.533 4.907 15.871 7.128 15.871 9.09C15.871 9.137 15.885 9.227 16.015 9.407C16.147 9.591 16.326 9.773 16.583 10.033C16.6117 10.0617 16.6403 10.0903 16.669 10.119C17.167 10.624 17.999 11.468 17.999 12.719C17.999 13.214 17.939 13.687 17.666 14.234C17.051 15.464 15.792 15.998 14.329 15.998H3.67C2.174 15.998 0.885 15.453 0.292 14.168C0.0489998 13.641 0 13.199 0 12.718C0 11.468 0.832 10.624 1.33 10.119L1.352 10.097L1.415 10.033C1.672 9.773 1.851 9.591 1.984 9.407C2.114 9.227 2.128 9.137 2.128 9.09C2.128 7.126 2.468 4.905 3.489 3.138L3.49 3.137Z" fill="black"/>
</svg>
