<svg width="18" height="18" viewBox="0 0 18 18" fill="none" xmlns="http://www.w3.org/2000/svg">
<path d="M18 9C18 13.9706 13.9706 18 9 18C4.02944 18 0 13.9706 0 9C0 4.02944 4.02944 0 9 0C13.9706 0 18 4.02944 18 9Z" fill="#FF4545"/>
<path fill-rule="evenodd" clip-rule="evenodd" d="M11.5354 8.54297V7.2C11.5354 5.70937 10.3961 4.5 9 4.5C7.6039 4.5 6.46463 5.70937 6.46463 7.2V8.54297H5.625V13.5H12.375V8.54297H11.5354ZM7.32073 7.2C7.32073 6.20508 8.06817 5.4 9 5.4C9.93183 5.4 10.6793 6.20508 10.6793 7.2V8.54297H7.32073V7.2Z" fill="white"/>
</svg>
