<svg width="36" height="44" viewBox="0 0 36 44" fill="none" xmlns="http://www.w3.org/2000/svg">
<path d="M28.5785 0H12.7385L0 12.6685V36.6184C0 40.6884 3.32945 44 7.42282 44H28.5785C32.6706 44 36 40.6884 36 36.6184V7.38167C36 3.31099 32.6706 0 28.5785 0ZM33.2522 36.6183C33.2522 39.1859 31.1597 41.2668 28.5785 41.2668H7.42282C4.84035 41.2668 2.74787 39.1859 2.74787 36.6183V13.8008H9.98229C12.1328 13.8008 13.8777 12.0667 13.8777 9.92757V2.73315H28.5785C31.1597 2.73315 33.2522 4.81404 33.2522 7.38167V36.6183Z" fill="white"/>
<path d="M8.15007 21.6232H4.80683C4.17026 21.6232 3.78894 22.0373 3.78894 22.6574V31.3005C3.78894 32.0491 4.28159 32.5425 4.96562 32.5425C5.63487 32.5425 6.12741 32.0492 6.12741 31.3005V28.6748C6.12741 28.6109 6.16011 28.579 6.22398 28.579H8.15007C10.505 28.579 11.9221 27.1463 11.9221 25.1089C11.9222 23.0396 10.5214 21.6232 8.15007 21.6232ZM8.00616 26.5572H6.22398C6.16011 26.5572 6.12741 26.5253 6.12741 26.4623V23.74C6.12741 23.6761 6.16011 23.6444 6.22398 23.6444H8.00616C8.99288 23.6444 9.58198 24.2335 9.58198 25.109C9.5821 25.9844 8.99288 26.5572 8.00616 26.5572Z" fill="white"/>
<path d="M17.3193 21.6232H14.7566C14.1201 21.6232 13.7387 22.0373 13.7387 22.6574V31.4281C13.7387 32.0492 14.12 32.4468 14.7566 32.4468H17.3193C19.6267 32.4468 21.0603 31.7145 21.633 29.9479C21.8392 29.3268 21.9521 28.579 21.9521 27.035C21.9521 25.491 21.8391 24.7431 21.633 24.1221C21.0601 22.3555 19.6267 21.6232 17.3193 21.6232ZM19.3894 29.1362C19.1178 29.9954 18.3388 30.3619 17.2554 30.3619H16.1738C16.1099 30.3619 16.0772 30.33 16.0772 30.2663V23.8039C16.0772 23.74 16.1099 23.7081 16.1738 23.7081H17.2554C18.3388 23.7081 19.1178 24.0747 19.3894 24.9339C19.5007 25.3005 19.5793 25.937 19.5793 27.0351C19.5793 28.1331 19.5006 28.7697 19.3894 29.1362Z" fill="white"/>
<path d="M30.3243 21.6232H25.0729C24.4363 21.6232 24.0534 22.0373 24.0534 22.6574V31.3005C24.0534 32.0491 24.5476 32.5425 25.2317 32.5425C25.8993 32.5425 26.3935 32.0492 26.3935 31.3005V28.2125C26.3935 28.1494 26.4245 28.1175 26.4884 28.1175H29.5453C30.2294 28.1175 30.627 27.7036 30.627 27.1144C30.627 26.5252 30.2294 26.1121 29.5453 26.1121H26.4884C26.4245 26.1121 26.3935 26.0802 26.3935 26.0164V23.74C26.3935 23.6761 26.4245 23.6444 26.4884 23.6444H30.3243C30.9773 23.6444 31.4077 23.2148 31.4077 22.6421C31.4076 22.0527 30.9771 21.6232 30.3243 21.6232Z" fill="white"/>
</svg>
